<svg width="77" height="77" viewBox="0 0 77 77" fill="none" xmlns="http://www.w3.org/2000/svg">
<circle cx="38.5" cy="38.5" r="37.915" fill="#FC5A5A"/>
<path d="M42.0754 38.8553L56.4544 24.4976C56.8842 24.0678 57.1256 23.4848 57.1256 22.8769C57.1256 22.2691 56.8842 21.6861 56.4544 21.2563C56.0246 20.8264 55.4417 20.585 54.8339 20.585C54.2261 20.585 53.6432 20.8264 53.2134 21.2563L38.8573 35.6368L24.5011 21.2563C24.0713 20.8264 23.4884 20.585 22.8806 20.585C22.2728 20.585 21.6899 20.8264 21.2601 21.2563C20.8303 21.6861 20.5889 22.2691 20.5889 22.8769C20.5889 23.4848 20.8303 24.0678 21.2601 24.4976L35.6391 38.8553L21.2601 53.213C21.0462 53.4252 20.8764 53.6777 20.7605 53.9558C20.6446 54.234 20.585 54.5323 20.585 54.8337C20.585 55.135 20.6446 55.4334 20.7605 55.7115C20.8764 55.9897 21.0462 56.2421 21.2601 56.4543C21.4723 56.6683 21.7247 56.8381 22.0028 56.954C22.281 57.0699 22.5793 57.1295 22.8806 57.1295C23.1819 57.1295 23.4802 57.0699 23.7583 56.954C24.0365 56.8381 24.2889 56.6683 24.5011 56.4543L38.8573 42.0738L53.2134 56.4543C53.4256 56.6683 53.678 56.8381 53.9562 56.954C54.2343 57.0699 54.5326 57.1295 54.8339 57.1295C55.1352 57.1295 55.4335 57.0699 55.7117 56.954C55.9898 56.8381 56.2422 56.6683 56.4544 56.4543C56.6683 56.2421 56.8381 55.9897 56.954 55.7115C57.0699 55.4334 57.1295 55.135 57.1295 54.8337C57.1295 54.5323 57.0699 54.234 56.954 53.9558C56.8381 53.6777 56.6683 53.4252 56.4544 53.213L42.0754 38.8553Z" fill="#1C1C24"/>
</svg>
