<svg width="76" height="76" viewBox="0 0 76 76" fill="none" xmlns="http://www.w3.org/2000/svg">
<path d="M37.9997 0C30.5005 0 23.1697 2.22377 16.9343 6.39011C10.699 10.5564 5.83908 16.4782 2.96926 23.4066C0.0994364 30.335 -0.65144 37.9587 0.811583 45.3138C2.27461 52.669 5.88582 59.4251 11.1886 64.7278C16.4913 70.0305 23.2474 73.6418 30.6025 75.1048C37.9576 76.5678 45.5814 75.8169 52.5098 72.9471C59.4381 70.0773 65.3599 65.2174 69.5262 58.982C73.6926 52.7467 75.9164 45.4159 75.9164 37.9167C75.8935 27.8676 71.8913 18.2366 64.7855 11.1308C57.6797 4.02502 48.0488 0.022891 37.9997 0ZM58.3664 29.25L36.6997 50.9167C36.0903 51.5253 35.2643 51.8671 34.403 51.8671C33.5418 51.8671 32.7157 51.5253 32.1064 50.9167L17.633 36.6167C17.0244 36.0073 16.6826 35.1813 16.6826 34.32C16.6826 33.4587 17.0244 32.6327 17.633 32.0233C17.9318 31.7167 18.2889 31.473 18.6834 31.3066C19.0778 31.1403 19.5016 31.0545 19.9297 31.0545C20.3578 31.0545 20.7816 31.1403 21.176 31.3066C21.5705 31.473 21.9276 31.7167 22.2264 32.0233L34.403 44.1567L53.773 24.9167C54.0164 24.4887 54.3538 24.1216 54.7598 23.843C55.1657 23.5645 55.6297 23.3819 56.1166 23.3089C56.6035 23.2359 57.1006 23.2745 57.5704 23.4218C58.0402 23.5691 58.4704 23.8211 58.8285 24.159C59.1866 24.4968 59.4633 24.9116 59.6377 25.3721C59.812 25.8325 59.8795 26.3265 59.835 26.8168C59.7905 27.3072 59.6351 27.781 59.3807 28.2025C59.1263 28.624 58.7795 28.9822 58.3664 29.25Z" fill="#82C43C"/>
</svg>
